<?xml version="1.0" encoding="utf-8"?>
<!-- Svg Vector Icons : http://www.onlinewebfonts.com/icon -->
<!DOCTYPE svg PUBLIC "-//W3C//DTD SVG 1.1//EN" "http://www.w3.org/Graphics/SVG/1.1/DTD/svg11.dtd">
<svg version="1.1" xmlns="http://www.w3.org/2000/svg" xmlns:xlink="http://www.w3.org/1999/xlink" x="0px" y="0px" viewBox="0 0 1000 1000" enable-background="new 0 0 1000 1000" xml:space="preserve">
<metadata> Svg Vector Icons : http://www.onlinewebfonts.com/icon </metadata>
<g><g transform="translate(0.000000,511.000000) scale(0.100000,-0.100000)">
    <path fill="#EB4F38" d="M4428.1,4988C2384.2,4754.4,670.4,3212.7,215.3,1197.5C61.6,516.9,61.6-294.9,215.3-975.5C469.5-2101,1133.7-3124,2058.3-3810.7c651.9-485.9,1305.9-768.8,2123.8-918.4c299.3-55.4,996.3-75.8,1332.5-41c1469.9,153.8,2775.8,955.3,3599.9,2205.8c422.3,641.7,686.8,1389.9,768.8,2162.8c34.9,325.9,12.3,1049.6-41,1334.6c-92.3,506.4-231.7,928.7-442.8,1355.1c-159.9,317.8-256.3,473.5-473.6,766.7c-799.5,1074.2-2050,1789.7-3374.4,1933.2C5319.9,5014.7,4651.6,5012.7,4428.1,4988z M5729.9,4643.6c1693.3-284.9,3071-1453.5,3608.1-3060.7c186.5-557.6,246-969.7,229.6-1603.1c-16.4-715.4-149.6-1260.8-461.3-1898.3c-112.8-227.6-436.7-742.1-502.3-797.5c-28.7-22.5-51.3-12.3-151.7,63.6c-239.9,184.5-535.1,340.3-785.2,418.2c-159.9,51.3-405.9,59.5-543.3,18.5c-153.8-43.1-227.5-88.1-416.2-252.1c-186.6-164-248.1-188.6-451-188.6c-211.2,0-276.8,24.6-549.4,209.1c-268.6,180.4-432.6,239.8-695,256.3c-323.9,18.4-547.4-59.5-813.9-282.9c-82-69.7-178.3-139.4-215.3-153.8c-98.4-43-393.6-36.9-524.8,10.3c-147.6,51.3-391.6,207.1-326,207.1c67.7,0,147.6,88.1,147.6,161.9c0,32.8-26.7,116.9-61.5,188.6c-82,174.3-92.3,270.6-53.3,465.4c34.9,166,30.8,213.2-24.6,276.7c-45.1,51.3-170.2,47.1-223.5-12.3c-61.5-63.6-96.3-266.5-84-492c8.2-149.7,22.5-219.4,73.8-340.3c36.9-84,61.5-155.8,57.4-161.9c-4.1-4.1-45.1,12.3-92.3,34.8c-221.4,114.8-572,131.2-842.6,43.1c-178.4-59.5-391.6-172.2-549.4-293.1c-71.8-53.3-139.4-92.3-149.7-86.1c-49.2,32.8-323.9,481.8-451,738C395.7-899.7,285,215.6,563.8,1287.7c149.6,574,459.2,1191.1,844.6,1679c149.7,190.6,547.4,588.4,738,738c697,549.4,1517,881.5,2414.9,977.9C4825.8,4711.3,5451.1,4690.8,5729.9,4643.6z M2615.9-2543.8c55.3-16.4,182.5-82,285-145.6c377.2-235.7,545.3-297.2,830.3-297.2c280.9,0,455.1,69.7,709.3,291.1c176.3,151.7,233.7,172.2,500.2,172.2c276.7,0,313.7-14.4,625.3-221.4c299.3-202.9,377.2-229.6,686.8-229.6c248,0,262.4,2.1,389.5,65.6c73.8,34.9,200.9,127.1,285,202.9c176.3,157.9,248,192.7,397.7,192.7c231.7,0,567.9-137.4,883.6-362.9l164-114.8l-205-198.9c-709.3-682.7-1592.9-1109.1-2570.8-1242.3c-252.1-32.8-879.5-36.9-1127.5-8.2c-910.2,110.7-1775.3,494-2472.4,1092.7c-194.8,168.1-438.7,418.2-438.7,451c0,16.4,274.7,192.7,405.9,258.3C2205.9-2517.1,2421.2-2484.3,2615.9-2543.8z"/>
    <path fill="#EB4F38" d="M5330.2,4451c-207-125.1-276.7-143.5-475.6-127.1c-200.9,14.4-244,2-282.9-92.3c-30.8-73.8,2.1-172.2,69.7-209.1c71.7-39,436.7-30.8,565.8,12.3c157.9,53.3,344.4,149.7,401.8,207.1c65.6,65.6,65.6,159.9-2,225.5C5539.3,4537,5465.4,4533,5330.2,4451z"/>
    <path fill="#EB4F38" d="M3817.2,4414c-188.6-104.5-346.5-264.4-444.9-451l-77.9-147.6l-24.6,61.5c-28.7,67.7-65.6,88.1-153.8,88.1c-88.2,0-133.3-55.4-192.7-244c-65.6-207-102.5-260.4-260.4-381.3c-67.6-53.3-127.1-116.9-133.3-145.6c-18.4-71.8,26.7-164,96.4-192.7c86.1-36.9,157.9,0,326,161.9c141.4,139.4,225.5,276.8,299.3,494.1c26.7,82,38.9,100.4,45.1,67.6c14.4-98.4,172.2-164,252.2-102.5c18.4,14.4,63.6,82,98.4,153.8c90.2,178.4,190.7,282.9,354.7,364.9c143.5,71.8,180.4,112.8,180.4,203c0,71.7-86.1,153.8-157.9,153.8C3993.5,4498.1,3899.2,4461.2,3817.2,4414z"/>
    <path fill="#EB4F38" d="M6180.9,4147.5c-135.3-30.8-264.5-82-311.6-127.1c-67.6-61.5-65.6-182.5,6.1-237.8c71.7-55.4,94.3-55.4,311.6,18.5c219.4,73.8,233.7,73.8,430.5,18.4c127.1-34.8,162-38.9,211.2-16.4c108.7,45.1,135.3,170.2,53.3,252.2C6789.8,4147.5,6404.4,4198.8,6180.9,4147.5z"/>
    <path fill="#6600FF" d="M4676.2,3587.9c-55.4-57.4-53.3-98.4,16.4-330c55.4-184.5,53.3-246-8.2-424.4c-61.5-176.3-63.6-221.4-10.3-276.8c55.4-59.5,114.8-75.9,182.5-47.1c71.7,28.7,92.3,67.6,147.6,276.8c34.8,129.1,41,198.9,32.8,338.3c-12.3,211.2-80,436.7-143.5,481.8C4825.8,3653.5,4729.5,3645.3,4676.2,3587.9z"/>
    <path fill="#00BB9C" d="M7156.7,3522.3c-96.3-79.9-88.2-157.8,28.7-264.4c176.3-164,451-276.8,686.8-276.8c110.7-2.1,112.7-2.1,57.4-32.8c-106.6-57.4-131.2-182.4-51.3-262.4c30.8-30.7,82-51.3,153.8-59.4c237.8-28.7,330.1-73.8,502.3-244c129.1-127.1,172.2-159.9,221.4-159.9c84.1,0,162,79.9,162,168.1c0,55.3-24.6,90.2-157.9,221.4c-180.4,176.3-338.3,264.4-578.1,323.9c-143.5,34.9-147.6,36.9-96.3,61.5c63.5,28.7,100.4,108.6,82,178.4c-22.6,94.3-73.8,116.9-301.4,133.3c-233.7,16.4-260.4,26.7-424.4,153.8C7290,3579.7,7236.7,3589.9,7156.7,3522.3z"/>
    <path fill="#6600FF" d="M5969.8,3350.1c-256.3-75.9-446.9-198.9-598.6-391.6c-100.5-129.2-110.7-219.3-28.7-282.9c106.6-84,188.6-49.2,330.1,135.3c79.9,104.5,217.3,184.5,385.4,221.4c114.8,24.6,162,47.1,194.8,86.1c53.3,69.7,51.3,135.3-4.1,198.8C6185,3387,6123.5,3395.2,5969.8,3350.1z"/>
    <path fill="#33FF00" d="M6703.7,3206.6c-22.5-22.6-45.1-65.6-53.3-96.4c-59.5-270.6-141.5-408-315.7-528.9c-123-86.1-143.5-207.1-49.2-291.1c94.3-86.1,170.2-57.4,356.7,125c172.2,170.2,328,492,328,672.4C6970.2,3218.9,6793.9,3296.8,6703.7,3206.6z"/>
    <path fill="#00BB9C" d="M4009.9,3073.3c-84.1-90.2-215.3-379.3-237.8-522.8c-26.6-168.1-26.6-391.6,0-459.2c10.3-28.7,43.1-63.5,73.8-79.9l55.3-28.7l-120.9-84c-403.8-274.7-713.4-705.2-863.1-1203.4c-51.3-172.2-55.4-209.1-55.4-574c0-336.2,6.2-410,43.1-547.4c219.3-777,787.2-1344.8,1560.1-1560.1c135.3-36.9,213.2-43.1,537.1-43.1c323.9,0,401.8,6.1,537.1,43.1c772.9,215.3,1344.8,787.2,1560.1,1560.1c36.9,135.3,43.1,213.2,43.1,537.1c0,323.9-6.2,401.8-43.1,537.1c-198.9,709.3-699.1,1256.7-1371.5,1498.6c-241.9,86.1-444.9,118.9-736,118.9c-301.4,0-559.7-38.9-760.6-114.8c-75.8-28.7-137.3-51.3-141.4-51.3c-2.1,0-6.2,100.4-8.2,223.4c-4.1,250.1,12.3,311.6,131.2,473.6c49.2,67.7,71.7,120.9,71.7,168.1C4284.6,3110.2,4108.3,3179.9,4009.9,3073.3z M5360.9,1917.1c383.4-77.9,695-254.2,965.6-541.2c178.4-190.7,264.5-319.8,367-561.7c106.6-248,139.4-453.1,127.1-783.1c-12.3-330-43.1-451-178.4-729.8c-176.3-362.9-467.4-654-830.3-830.3c-278.8-135.3-399.8-166.1-729.8-178.4c-416.2-16.4-705.2,55.4-1059.9,264.5c-168.1,98.4-492,426.4-596.6,604.8c-553.5,941-207.1,2117.7,766.7,2603.6C4547,1943.7,4969.4,1999.1,5360.9,1917.1z"/>
    <path fill="#6600FF" d="M7062.4,2847.8c-73.8-71.8-63.5-143.5,41-305.5c110.7-170.2,137.4-260.4,133.3-440.8c-6.1-192.7-4.1-202.9,41-248c53.3-53.3,164-53.3,219.4,0c106.6,98.4,77.9,459.2-55.4,731.9C7298.2,2878.6,7175.2,2962.6,7062.4,2847.8z"/>
    <path fill="#33FF00" d="M2773.8,2765.8c-59.5-43.1-80-141.5-41-203c18.5-26.6,86.1-77.9,151.7-114.8c200.9-114.8,244-157.9,342.3-348.5c51.3-98.4,108.7-186.6,127.1-192.7c112.8-43,233.7,30.8,233.7,145.6c0,176.3-254.2,504.3-510.5,658.1C2923.4,2800.7,2845.5,2815,2773.8,2765.8z"/>
    <path fill="#33FF00" d="M1359.2,2567c-22.5-26.6-53.3-92.3-67.6-149.6c-53.3-207.1-118.9-313.7-260.4-424.4c-149.6-118.9-178.3-170.2-147.6-262.4c26.6-71.8,71.7-102.5,153.7-102.5c65.6,0,248.1,133.3,346.5,254.2c137.4,170.2,270.6,508.4,244,615C1599.1,2612.1,1437.1,2653.1,1359.2,2567z"/>
    <path fill="#6600FF" d="M2080.8,2120.1c-280.9-73.8-338.3-114.8-338.3-244c0-77.9,63.6-145.5,135.3-145.5c30.8,0,114.8,22.5,190.6,49.2c207.1,73.8,289.1,82,436.7,43.1c198.8-53.3,217.3-57.4,272.6-43.1c61.5,16.4,118.9,116.9,100.4,184.5c-18.4,75.9-65.6,108.7-233.7,153.8C2456,2171.3,2271.5,2171.3,2080.8,2120.1z"/>
    <path fill="#CC00FF" d="M8292.5,1925.3c-69.7-67.6-65.6-141.5,14.4-289.1c90.2-168.1,299.3-369,485.9-463.3c209.1-108.6,299.3-98.4,350.6,32.8c34.9,94.3-10.3,155.8-188.6,248.1c-194.8,102.5-270.6,172.2-346.4,323.9c-32.8,65.6-77.9,135.3-100.5,157.9C8450.3,1992.9,8354,1988.8,8292.5,1925.3z"/>
    <path fill="#FFCC33" d="M7800.4,1855.6c-24.6-10.2-69.7-57.4-102.5-104.5c-32.8-47.1-102.5-125.1-157.9-174.3c-82-73.8-129.2-96.4-274.7-135.3c-184.5-49.2-254.2-100.4-254.2-192.7c0-77.9,75.8-153.8,153.8-153.8c92.3,0,328,73.8,438.7,137.4c180.4,104.5,432.5,377.2,432.5,467.4C8036.2,1802.3,7896.8,1894.6,7800.4,1855.6z"/>
    <path fill="#CC00FF" d="M1377.7,1539.9c-57.4-59.5-59.5-164-4.1-219.4c20.5-20.5,86.1-63.6,141.5-92.3c159.9-80,244-168.1,332.1-340.3c43.1-88.1,98.4-170.2,118.9-182.4c61.5-32.8,133.3-24.6,182.5,20.5c77.9,73.8,77.9,131.2-6.1,301.4c-92.3,186.5-268.6,371-461.3,483.8C1527.3,1599.3,1441.2,1607.5,1377.7,1539.9z"/>
    <path fill="#CC00FF" d="M8577.4,941.3c-41-41-49.2-69.7-45.1-127.1c6.2-67.6,22.5-88.1,159.9-192.7c184.5-141.4,233.7-209.1,289.1-393.6c22.6-75.9,61.5-155.8,84.1-178.4c98.4-90.2,262.4-18.5,262.4,114.8c0,71.8-77.9,282.9-151.7,405.9c-57.4,96.4-252.2,291.1-369,369C8706.6,1006.9,8643,1006.9,8577.4,941.3z"/>
    <path fill="#FFCC33" d="M2429.4,603c-71.7-28.7-106.6-88.1-143.5-244c-49.2-202.9-34.9-449,38.9-658.1c28.7-84.1,73.8-170.2,96.4-188.6c63.6-53.3,153.8-47.1,215.3,16.4c63.6,61.5,59.4,110.7-20.5,326c-63.6,172.2-65.6,264.4-12.3,440.8c51.3,168.1,51.3,190.6-4.1,254.2C2544.2,609.2,2486.8,627.6,2429.4,603z"/>
    <path fill="#FFCC33" d="M922.6,535.4c-75.8-39-106.6-116.9-80-196.8c18.4-51.3,53.3-79.9,164-137.4c209.1-104.5,377.2-137.3,615-123c293.2,18.5,367,55.4,367,184.5c0,125.1-90.2,184.5-231.7,151.7c-47.2-10.2-155.8-18.5-241.9-20.5c-141.5,0-172.2,8.2-299.3,71.8C1043.5,555.9,988.2,570.2,922.6,535.4z"/>
    <path fill="#FFCC33" d="M7419.1,443.1c-90.2-45.1-121-143.5-71.7-219.4c38.9-59.5,221.4-155.8,391.6-205c145.5-43.1,545.3-36.9,619.1,10.3c69.7,45.1,98.4,131.2,69.7,202.9c-41,94.3-96.3,110.7-291.1,90.2c-207.1-22.5-342.4-4.1-459.2,63.5C7527.8,473.9,7495,482.1,7419.1,443.1z"/>
    <path fill="#FFCC33" d="M621.2,131.5c-53.3-22.6-88.1-82-88.1-149.6c0-28.7,43-102.5,102.5-176.3c151.7-190.7,186.6-270.6,200.9-461.3c8.2-135.3,18.5-172.2,57.4-211.2c104.6-104.5,274.7-22.5,274.7,131.2c0,264.4-120.9,578.1-291.1,770.8C785.2,137.7,705.3,166.4,621.2,131.5z"/>
    <path fill="#FFCC33" d="M8819.3-231.4c-75.9-30.7-159.9-387.5-139.4-584.3c14.3-110.7,57.4-278.8,106.6-395.6c14.4-39,14.4-39-20.5-6.2c-55.3,55.3-129.2,65.6-186.6,28.7c-90.2-59.4-98.4-100.4-61.5-293.2c41-207,30.8-293.2-51.3-457.2c-75.9-149.6-77.9-231.6-10.3-297.2c53.3-55.4,129.2-65.6,198.9-28.7c49.2,26.6,143.5,227.6,180.4,385.4c26.7,112.7,18.5,469.5-12.3,543.3c-14.4,39-14.4,39,32.8,6.2c71.8-49.2,157.9-43.1,215.3,16.4c61.5,59.4,63.5,114.8,8.2,235.7c-94.3,202.9-106.6,403.9-41,580.2c38.9,102.5,28.7,190.7-30.8,237.8C8956.7-219.1,8878.8-206.7,8819.3-231.4z"/>
    <path fill="#6600FF" d="M8413.4-549.1c-24.6-10.2-63.6-55.4-86.1-96.3c-112.8-198.9-237.8-311.6-408-364.9c-190.6-59.5-254.2-192.7-147.6-305.5c63.6-69.7,155.8-59.4,354.7,41c164,80,323.9,225.5,444.8,403.9c108.7,159.9,106.6,258.3-4.1,315.7C8501.6-520.4,8472.9-518.3,8413.4-549.1z"/>
    <path fill="#FFCC33" d="M1947.6-637.3c-41-43.1-45.1-61.5-32.8-147.6c8.2-53.3,18.4-170.2,26.7-256.3c10.2-151.7,8.2-166-63.6-315.7c-41-86.1-73.8-178.3-73.8-205c0-69.7,86.1-151.7,159.9-151.7c86.1,0,131.2,49.2,205,219.4c90.2,207.1,116.9,375.2,88.2,582.2c-12.3,92.2-22.6,176.3-22.6,184.5c0,8.2-24.6,43.1-53.3,77.9C2113.7-567.6,2017.3-563.5,1947.6-637.3z"/>
    <path fill="#FFCC33" d="M1133.7-1254.3c-51.3-51.3-53.3-59.4-41-229.6c18.5-260.4,84.1-430.5,256.3-660.1c71.7-96.3,133.3-141.5,194.8-143.5c53.3,0,157.9,110.7,157.9,168.1c0,28.7-43,104.5-94.3,172.2c-149.6,190.6-176.3,260.4-190.6,477.7c-12.3,168.1-18.4,194.7-61.5,229.6C1287.5-1184.6,1197.3-1190.8,1133.7-1254.3z"/>
    <path fill="#CC00FF" d="M6752.9-1381.4c-12.3-8.2-67.7-65.6-121-127.1c-172.2-200.9-270.6-449-280.9-701.1c-4.1-112.8,0-127.1,51.3-172.2c71.7-61.5,139.4-61.5,209.1-2.1c45.1,39,55.4,69.7,71.7,225.5c20.5,203,55.4,278.8,213.2,461.3c110.7,129.2,118.9,188.6,34.8,272.6C6873.8-1367.1,6800-1348.6,6752.9-1381.4z"/>
    <path fill="#CC00FF" d="M7218.2-1572.1c-108.6-43-137.3-166.1-57.4-250.1c61.5-67.7,272.6-153.8,446.9-182.5c159.9-24.6,451,4.1,551.5,55.4c94.3,49.2,110.7,153.8,36.9,246c-41,51.3-51.3,55.4-147.6,43c-57.4-8.2-180.4-18.4-270.6-26.7c-159.9-10.2-174.2-8.2-330.1,63.6c-90.2,41-168.1,73.8-172.2,71.7C7271.6-1551.6,7244.9-1561.8,7218.2-1572.1z"/></g></g>
</svg>